# xmcd
#
# Track frame offsets: 
#        150
#        18307
#        37335
#        62230
#        79152
#        97800
#        113625
#        131105
#        150112
#
# Disc length: 2235 seconds
#
# Revision: 0
# Processed by: cddbd v1.5.1PL2 Copyright (c) Steve Scherf et al.
# Submitted via: ExactAudioCopy v0.95b3
#
DISCID=6908b909
DTITLE=Latimore - I'll  Do Anything For You
DYEAR=1983
DGENRE=Soul
TTITLE0=Hell Fire Lovin'
TTITLE1=Out To Lunch
TTITLE2=Let's Straighten It Out
TTITLE3=You
TTITLE4=I'll Do Anything For You
TTITLE5=Sara Smile
TTITLE6=One Shirt, Soulless Shoes
TTITLE7=We Don't Make Love Anymore
TTITLE8=Take Me Down
EXTD=
EXTT0=
EXTT1=
EXTT2=
EXTT3=
EXTT4=
EXTT5=
EXTT6=
EXTT7=
EXTT8=
PLAYORDER=
